<svg width="100" height="100" viewBox="0 0 64 64" fill="none" xmlns="http://www.w3.org/2000/svg">
  <!-- House Outline -->
  <path d="M8 28L32 8L56 28V56C56 57.1 55.1 58 54 58H10C8.9 58 8 57.1 8 56V28Z" fill="#FFF3E0" stroke="#FF9800" stroke-width="2"></path>

  <!-- Floor Line -->
  <line x1="10" y1="50" x2="54" y2="50" stroke="#BDBDBD" stroke-width="1"></line>

  <!-- Bed Frame (rounded head) -->
  <path d="M18 42H38C39.1 42 40 42.9 40 44V48H16V44C16 42.9 16.9 42 18 42Z" fill="#A1887F"></path>
  <!-- Mattress -->
  <rect x="18" y="40" width="20" height="4" rx="1" fill="#E0F7FA"></rect>
  <!-- Pillow -->
  <rect x="20" y="40" width="5" height="2.5" rx="0.5" fill="#FFFFFF" stroke="#B0BEC5" stroke-width="0.5"></rect>

  <!-- Chair -->
  <rect x="42" y="43" width="6" height="5" fill="#90A4AE"></rect>
  <rect x="43" y="41" width="4" height="2" fill="#78909C"></rect>
  <line x1="43" y1="48" x2="43" y2="50" stroke="#455A64" stroke-width="1"></line>
  <line x1="47" y1="48" x2="47" y2="50" stroke="#455A64" stroke-width="1"></line>

  <!-- Window -->
  <rect x="12" y="30" width="10" height="10" fill="#BBDEFB" stroke="#64B5F6" stroke-width="1"></rect>
  <line x1="17" y1="30" x2="17" y2="40" stroke="#64B5F6" stroke-width="0.5"></line>
  <line x1="12" y1="35" x2="22" y2="35" stroke="#64B5F6" stroke-width="0.5"></line>

  <!-- Available Tick -->
  <circle cx="50" cy="30" r="5" fill="#4CAF50"></circle>
  <path d="M48.5 30.5L50 32L52.5 28.5" stroke="white" stroke-width="1.5" stroke-linecap="round"></path>
</svg>
