<svg width="200" height="200" viewBox="0 0 64 64" xmlns="http://www.w3.org/2000/svg">
  <!-- Hotel Building -->
  <rect x="10" y="20" width="44" height="34" rx="2" ry="2" fill="#4a90e2"></rect>
  <rect x="16" y="26" width="6" height="6" fill="#fff"></rect>
  <rect x="26" y="26" width="6" height="6" fill="#fff"></rect>
  <rect x="36" y="26" width="6" height="6" fill="#fff"></rect>
  <rect x="16" y="36" width="6" height="6" fill="#fff"></rect>
  <rect x="26" y="36" width="6" height="6" fill="#fff"></rect>
  <rect x="36" y="36" width="6" height="6" fill="#fff"></rect>
  <rect x="30" y="44" width="4" height="10" fill="#fff"></rect>

  <!-- Calendar -->
  <rect x="42" y="6" width="16" height="16" rx="2" ry="2" fill="#f5a623"></rect>
  <line x1="42" y1="12" x2="58" y2="12" stroke="#fff" stroke-width="2"></line>
  <rect x="46" y="14" width="2" height="2" fill="#fff"></rect>
  <rect x="50" y="14" width="2" height="2" fill="#fff"></rect>
  <rect x="54" y="14" width="2" height="2" fill="#fff"></rect>

  <!-- Checkmark -->
  <path d="M20 8 L26 14 L36 4" stroke="#7ed321" stroke-width="3" fill="none" stroke-linecap="round" stroke-linejoin="round"></path>
</svg>
